<?xml version="1.0" encoding="UTF-8"?>
<svg width="78px" height="53px" viewBox="0 0 78 53" version="1.1" xmlns="http://www.w3.org/2000/svg" xmlns:xlink="http://www.w3.org/1999/xlink">
    <!-- Generator: Sketch 48.1 (47250) - http://www.bohemiancoding.com/sketch -->
    <title>Aa</title>
    <desc>Created with Sketch.</desc>
    <defs></defs>
    <g id="BP-1440px-|-MPU" stroke="none" stroke-width="1" fill="none" fill-rule="evenodd" transform="translate(-1101.000000, -5193.000000)">
        <path d="M1126.27649,5194.152 L1145.57249,5242.968 C1145.93249,5243.904 1145.64449,5244.336 1144.56449,5244.336 L1142.47649,5244.336 C1140.96449,5244.336 1140.10049,5243.904 1139.88449,5243.04 L1134.48449,5229.36 L1111.94849,5229.36 L1106.54849,5243.04 C1106.26049,5244.12 1105.75649,5244.336 1104.02849,5244.336 L1102.08449,5244.336 C1101.07649,5244.336 1100.78849,5243.904 1101.14849,5242.968 L1120.44449,5194.224 C1120.73249,5193.432 1121.30849,5193 1122.24449,5193 L1124.40449,5193 C1125.34049,5193 1125.98849,5193.36 1126.27649,5194.152 Z M1133.04449,5225.04 L1124.40449,5202.936 C1123.75649,5200.992 1123.39649,5199.336 1123.39649,5197.968 L1123.03649,5197.968 C1123.03649,5199.48 1122.74849,5201.136 1122.17249,5202.936 L1113.46049,5225.04 L1133.04449,5225.04 Z M1149.74849,5213.808 C1152.41249,5208.768 1157.23649,5206.248 1164.22049,5206.248 C1174.87649,5206.248 1178.62049,5211.792 1178.62049,5220.504 L1178.62049,5239.368 C1178.62049,5241.888 1178.04449,5242.608 1176.02849,5243.472 C1173.14849,5244.696 1169.18849,5245.344 1164.07649,5245.344 C1158.10049,5245.344 1154.06849,5244.48 1151.83649,5242.608 C1149.60449,5240.808 1148.52449,5238 1148.52449,5234.184 C1148.52449,5226.048 1152.91649,5223.024 1164.36449,5223.024 C1166.30849,5223.024 1169.47649,5223.24 1173.79649,5223.744 L1173.79649,5220.432 C1173.79649,5214.168 1171.34849,5210.568 1164.07649,5210.568 C1159.32449,5210.568 1155.94049,5212.296 1153.99649,5215.824 C1153.49249,5216.544 1152.84449,5216.76 1152.19649,5216.4 L1150.46849,5215.68 C1149.53249,5215.32 1149.31649,5214.744 1149.74849,5213.808 Z M1173.79649,5238.072 L1173.79649,5227.704 C1169.47649,5227.272 1166.16449,5227.056 1163.86049,5227.056 C1156.30049,5227.056 1153.49249,5229.144 1153.49249,5234.112 C1153.49249,5239.008 1155.72449,5241.312 1163.71649,5241.312 C1167.38849,5241.312 1170.26849,5240.952 1172.42849,5240.16 C1173.58049,5239.656 1173.79649,5239.44 1173.79649,5238.072 Z" id="Aa" fill="#202020"></path>
    </g>
</svg>