<?xml version="1.0" encoding="UTF-8"?>
<svg width="80px" height="53px" viewBox="0 0 80 53" version="1.1" xmlns="http://www.w3.org/2000/svg" xmlns:xlink="http://www.w3.org/1999/xlink">
    <!-- Generator: Sketch 48.1 (47250) - http://www.bohemiancoding.com/sketch -->
    <title>Aa</title>
    <desc>Created with Sketch.</desc>
    <defs></defs>
    <g id="BP-1440px-|-Travel.App" stroke="none" stroke-width="1" fill="none" fill-rule="evenodd" transform="translate(-1098.000000, -5504.000000)">
        <path d="M1146.312,5555.588 L1140.912,5555.588 C1140.288,5555.588 1139.784,5555.432 1139.4,5555.12 C1139.016,5554.808 1138.728,5554.412 1138.536,5553.932 L1133.712,5541.476 L1110.564,5541.476 L1105.74,5553.932 C1105.596,5554.364 1105.32,5554.748 1104.912,5555.084 C1104.504,5555.42 1104,5555.588 1103.4,5555.588 L1098,5555.588 L1118.628,5504 L1125.684,5504 L1146.312,5555.588 Z M1112.508,5536.436 L1131.768,5536.436 L1123.668,5515.448 C1123.404,5514.824 1123.146,5514.104 1122.894,5513.288 C1122.642,5512.472 1122.384,5511.596 1122.12,5510.66 C1121.88,5511.596 1121.634,5512.478 1121.382,5513.306 C1121.13,5514.134 1120.872,5514.86 1120.608,5515.484 L1112.508,5536.436 Z M1174.788,5555.588 C1174.164,5555.588 1173.684,5555.486 1173.348,5555.282 C1173.012,5555.078 1172.748,5554.676 1172.556,5554.076 L1171.836,5550.656 C1170.876,5551.52 1169.934,5552.294 1169.01,5552.978 C1168.086,5553.662 1167.126,5554.238 1166.13,5554.706 C1165.134,5555.174 1164.06601,5555.534 1162.926,5555.786 C1161.78599,5556.038 1160.52001,5556.164 1159.128,5556.164 C1157.71199,5556.164 1156.38001,5555.966 1155.132,5555.57 C1153.88399,5555.174 1152.798,5554.58 1151.874,5553.788 C1150.95,5552.996 1150.218,5551.99401 1149.678,5550.782 C1149.138,5549.56999 1148.868,5548.13601 1148.868,5546.48 C1148.868,5545.03999 1149.264,5543.65401 1150.056,5542.322 C1150.848,5540.98999 1152.13199,5539.80801 1153.908,5538.776 C1155.68401,5537.74399 1157.99999,5536.898 1160.856,5536.238 C1163.71201,5535.578 1167.21598,5535.2 1171.368,5535.104 L1171.368,5532.26 C1171.368,5529.42799 1170.75601,5527.28601 1169.532,5525.834 C1168.30799,5524.38199 1166.52001,5523.656 1164.168,5523.656 C1162.58399,5523.656 1161.25801,5523.854 1160.19,5524.25 C1159.12199,5524.646 1158.198,5525.09 1157.418,5525.582 C1156.638,5526.074 1155.966,5526.518 1155.402,5526.914 C1154.838,5527.31 1154.28,5527.508 1153.728,5527.508 C1153.296,5527.508 1152.924,5527.394 1152.612,5527.166 C1152.3,5526.938 1152.036,5526.656 1151.82,5526.32 L1150.668,5524.268 C1152.68401,5522.32399 1154.85599,5520.872 1157.184,5519.912 C1159.51201,5518.952 1162.09199,5518.472 1164.924,5518.472 C1166.96401,5518.472 1168.77599,5518.808 1170.36,5519.48 C1171.94401,5520.152 1173.27599,5521.08799 1174.356,5522.288 C1175.43601,5523.48801 1176.252,5524.93999 1176.804,5526.644 C1177.356,5528.34801 1177.632,5530.21999 1177.632,5532.26 L1177.632,5555.588 L1174.788,5555.588 Z M1161.036,5551.664 C1162.16401,5551.664 1163.196,5551.55 1164.132,5551.322 C1165.068,5551.094 1165.95,5550.77 1166.778,5550.35 C1167.606,5549.93 1168.398,5549.414 1169.154,5548.802 C1169.91,5548.19 1170.648,5547.5 1171.368,5546.732 L1171.368,5539.172 C1168.41599,5539.268 1165.90201,5539.502 1163.826,5539.874 C1161.74999,5540.246 1160.05801,5540.732 1158.75,5541.332 C1157.44199,5541.932 1156.494,5542.64 1155.906,5543.456 C1155.318,5544.272 1155.024,5545.18399 1155.024,5546.192 C1155.024,5547.152 1155.18,5547.98 1155.492,5548.676 C1155.804,5549.372 1156.23,5549.942 1156.77,5550.386 C1157.31,5550.83 1157.946,5551.154 1158.678,5551.358 C1159.41,5551.562 1160.196,5551.664 1161.036,5551.664 Z" id="Aa" fill="#202020"></path>
    </g>
</svg>