<?xml version="1.0" encoding="UTF-8"?>
<svg width="76px" height="52px" viewBox="0 0 76 52" version="1.1" xmlns="http://www.w3.org/2000/svg" xmlns:xlink="http://www.w3.org/1999/xlink">
    <!-- Generator: Sketch 48.1 (47250) - http://www.bohemiancoding.com/sketch -->
    <title>Aa</title>
    <desc>Created with Sketch.</desc>
    <defs></defs>
    <g id="BP-1440px-|-Vdele" stroke="none" stroke-width="1" fill="none" fill-rule="evenodd" transform="translate(-1100.000000, -4989.000000)">
        <path d="M1145.324,5039.94 L1142.48,5039.94 C1142.144,5039.94 1141.868,5039.85 1141.652,5039.67 C1141.436,5039.49 1141.268,5039.256 1141.148,5038.968 L1135.172,5024.172 L1110.152,5024.172 L1104.176,5038.968 C1104.08,5039.232 1103.912,5039.46 1103.672,5039.652 C1103.432,5039.844 1103.144,5039.94 1102.808,5039.94 L1100,5039.94 L1120.844,4989 L1124.48,4989 L1145.324,5039.94 Z M1111.232,5021.436 L1134.056,5021.436 L1123.688,4995.696 C1123.328,4994.856 1122.98,4993.84801 1122.644,4992.672 C1122.476,4993.248 1122.308,4993.8 1122.14,4994.328 C1121.972,4994.856 1121.804,4995.324 1121.636,4995.732 L1111.232,5021.436 Z M1174.196,5039.94 C1173.476,5039.94 1173.032,5039.604 1172.864,5038.932 L1172.36,5034.36 C1171.376,5035.32 1170.398,5036.184 1169.426,5036.952 C1168.454,5037.72 1167.44001,5038.368 1166.384,5038.896 C1165.32799,5039.424 1164.18801,5039.826 1162.964,5040.102 C1161.73999,5040.378 1160.39601,5040.516 1158.932,5040.516 C1157.70799,5040.516 1156.52001,5040.336 1155.368,5039.976 C1154.21599,5039.616 1153.19,5039.064 1152.29,5038.32 C1151.39,5037.576 1150.67,5036.62201 1150.13,5035.458 C1149.59,5034.29399 1149.32,5032.89601 1149.32,5031.264 C1149.32,5029.75199 1149.752,5028.34801 1150.616,5027.052 C1151.48,5025.75599 1152.83599,5024.628 1154.684,5023.668 C1156.53201,5022.708 1158.90199,5021.94 1161.794,5021.364 C1164.68601,5020.788 1168.15998,5020.452 1172.216,5020.356 L1172.216,5016.612 C1172.216,5013.29998 1171.50201,5010.75001 1170.074,5008.962 C1168.64599,5007.17399 1166.52801,5006.28 1163.72,5006.28 C1161.99199,5006.28 1160.52201,5006.52 1159.31,5007 C1158.09799,5007.48 1157.072,5008.008 1156.232,5008.584 C1155.392,5009.16 1154.708,5009.688 1154.18,5010.168 C1153.652,5010.648 1153.208,5010.888 1152.848,5010.888 C1152.584,5010.888 1152.368,5010.828 1152.2,5010.708 C1152.032,5010.588 1151.888,5010.432 1151.768,5010.24 L1151.156,5009.196 C1153.02801,5007.32399 1154.99599,5005.908 1157.06,5004.948 C1159.12401,5003.988 1161.46399,5003.508 1164.08,5003.508 C1166.00001,5003.508 1167.67999,5003.814 1169.12,5004.426 C1170.56001,5005.038 1171.754,5005.91399 1172.702,5007.054 C1173.65,5008.19401 1174.364,5009.57399 1174.844,5011.194 C1175.324,5012.81401 1175.564,5014.61999 1175.564,5016.612 L1175.564,5039.94 L1174.196,5039.94 Z M1159.796,5038.032 C1161.18801,5038.032 1162.46599,5037.882 1163.63,5037.582 C1164.79401,5037.282 1165.874,5036.862 1166.87,5036.322 C1167.866,5035.782 1168.796,5035.14 1169.66,5034.396 C1170.524,5033.652 1171.376,5032.848 1172.216,5031.984 L1172.216,5022.66 C1168.80798,5022.756 1165.86801,5023.014 1163.396,5023.434 C1160.92399,5023.854 1158.89001,5024.424 1157.294,5025.144 C1155.69799,5025.864 1154.522,5026.722 1153.766,5027.718 C1153.01,5028.714 1152.632,5029.84799 1152.632,5031.12 C1152.632,5032.32001 1152.83,5033.358 1153.226,5034.234 C1153.622,5035.11 1154.15,5035.83 1154.81,5036.394 C1155.47,5036.958 1156.232,5037.372 1157.096,5037.636 C1157.96,5037.9 1158.86,5038.032 1159.796,5038.032 Z" id="Aa" fill="#202020"></path>
    </g>
</svg>