<?xml version="1.0" encoding="UTF-8"?>
<svg width="73px" height="52px" viewBox="0 0 73 52" version="1.1" xmlns="http://www.w3.org/2000/svg" xmlns:xlink="http://www.w3.org/1999/xlink">
    <!-- Generator: Sketch 48.1 (47250) - http://www.bohemiancoding.com/sketch -->
    <title>H1</title>
    <desc>Created with Sketch.</desc>
    <defs></defs>
    <g id="BP-1440px-|-MPU" stroke="none" stroke-width="1" fill="none" fill-rule="evenodd" transform="translate(-824.000000, -5194.000000)">
        <path d="M856.04,5194 C853.808,5194 853.088,5194.72 853.088,5196.952 L853.088,5213.872 L835.736,5213.872 L835.736,5196.952 C835.736,5194.72 835.016,5194 832.784,5194 L826.952,5194 C824.72,5194 824,5194.72 824,5196.952 L824,5242.168 C824,5244.4 824.72,5245.12 826.952,5245.12 L832.784,5245.12 C835.016,5245.12 835.736,5244.4 835.736,5242.168 L835.736,5224.6 L853.088,5224.6 L853.088,5242.168 C853.088,5244.4 853.808,5245.12 856.04,5245.12 L861.872,5245.12 C864.104,5245.12 864.752,5244.4 864.752,5242.168 L864.752,5196.952 C864.752,5194.72 864.104,5194 861.872,5194 L856.04,5194 Z M889.304,5194 C887.792,5194 886.424,5194.36 885.128,5195.152 L872.096,5202.712 C870.08,5203.864 869.72,5204.728 870.656,5206.672 L873.176,5211.208 C874.184,5213.152 875.696,5213.512 877.64,5212.36 L884.624,5208.4 L884.624,5242.168 C884.624,5244.4 885.344,5245.12 887.576,5245.12 L893.408,5245.12 C895.64,5245.12 896.36,5244.4 896.36,5242.168 L896.36,5196.952 C896.36,5194.72 895.64,5194 893.408,5194 L889.304,5194 Z" id="H1" fill="#202020"></path>
    </g>
</svg>