<?xml version="1.0" encoding="UTF-8"?>
<svg width="87px" height="53px" viewBox="0 0 87 53" version="1.1" xmlns="http://www.w3.org/2000/svg" xmlns:xlink="http://www.w3.org/1999/xlink">
    <!-- Generator: Sketch 48.1 (47250) - http://www.bohemiancoding.com/sketch -->
    <title>H1</title>
    <desc>Created with Sketch.</desc>
    <defs></defs>
    <g id="BP-1440px-|-Vdele" stroke="none" stroke-width="1" fill="none" fill-rule="evenodd" transform="translate(-817.000000, -4988.000000)">
        <path d="M860.884,5040.128 L851.164,5040.128 L851.164,5017.376 L826.72,5017.376 L826.72,5040.128 L817,5040.128 L817,4988.072 L826.72,4988.072 L826.72,5010.464 L851.164,5010.464 L851.164,4988.072 L860.884,4988.072 L860.884,5040.128 Z M875.14,5033.468 L885.688,5033.468 L885.688,5003.12 C885.688,5001.94399 885.724,5000.70801 885.796,4999.412 L878.308,5005.676 C877.875998,5006.012 877.450002,5006.222 877.03,5006.306 C876.609998,5006.39 876.214002,5006.396 875.842,5006.324 C875.469998,5006.252 875.140001,5006.126 874.852,5005.946 C874.563999,5005.766 874.348001,5005.568 874.204,5005.352 L871.396,5001.5 L887.272,4988 L894.58,4988 L894.58,5033.468 L903.94,5033.468 L903.94,5040.128 L875.14,5040.128 L875.14,5033.468 Z" id="H1" fill="#202020"></path>
    </g>
</svg>