<?xml version="1.0" encoding="UTF-8"?>
<svg width="77px" height="14px" viewBox="0 0 77 14" version="1.1" xmlns="http://www.w3.org/2000/svg" xmlns:xlink="http://www.w3.org/1999/xlink">
    <!-- Generator: Sketch 48.1 (47250) - http://www.bohemiancoding.com/sketch -->
    <title>HEADERS</title>
    <desc>Created with Sketch.</desc>
    <defs></defs>
    <g id="BP-1440px-|-Travel.App" stroke="none" stroke-width="1" fill="none" fill-rule="evenodd" transform="translate(-760.000000, -5466.000000)">
        <path d="M763.24,5474.118 L766.912,5474.118 L766.912,5478.924 L770.152,5478.924 L770.152,5466.18 L766.912,5466.18 L766.912,5471.004 L763.24,5471.004 L763.24,5466.18 L760,5466.18 L760,5478.924 L763.24,5478.924 L763.24,5474.118 Z M775.426,5469.204 L781.042,5469.204 L781.042,5466.18 L772.168,5466.18 L772.168,5478.924 L781.042,5478.924 L781.042,5475.882 L775.426,5475.882 L775.426,5473.974 L780.592,5473.974 L780.592,5471.184 L775.426,5471.184 L775.426,5469.204 Z M789.016,5466.18 L793.57,5478.924 L790.114,5478.924 L789.286,5476.368 L785.884,5476.368 L785.092,5478.924 L781.636,5478.924 L786.082,5466.18 L789.016,5466.18 Z M786.604,5473.506 L788.512,5473.506 L787.63,5469.78 L787.54,5469.78 L786.604,5473.506 Z M794.416,5466.18 L799.186,5466.18 C801.742,5466.18 804.136,5467.476 804.136,5470.446 L804.136,5474.73 C804.136,5477.664 801.742,5478.942 799.186,5478.924 L794.416,5478.924 L794.416,5466.18 Z M797.656,5475.9 L799.294,5475.9 C800.392,5475.9 800.896,5475.342 800.896,5474.514 L800.896,5470.536 C800.896,5469.708 800.374,5469.186 799.294,5469.186 L797.656,5469.186 L797.656,5475.9 Z M809.122,5469.204 L814.738,5469.204 L814.738,5466.18 L805.864,5466.18 L805.864,5478.924 L814.738,5478.924 L814.738,5475.882 L809.122,5475.882 L809.122,5473.974 L814.288,5473.974 L814.288,5471.184 L809.122,5471.184 L809.122,5469.204 Z M823.234,5478.924 L820.282,5474.874 L819.706,5474.874 L819.706,5478.924 L816.448,5478.924 L816.448,5466.18 L821.542,5466.18 C824.17,5466.18 826.204,5467.386 826.276,5470.374 C826.276,5472.732 825.322,5474.064 823.774,5474.55 L827.248,5478.924 L823.234,5478.924 Z M819.706,5472.102 L821.596,5472.102 C823.63,5472.102 823.63,5469.186 821.596,5469.186 L819.706,5469.186 L819.706,5472.102 Z M827.464,5476.8 C828.652,5478.33 830.272,5479.104 831.802,5479.104 C834.142,5479.104 836.734,5477.754 836.842,5475.288 C836.986,5472.156 834.718,5471.364 832.45,5470.95 C831.46,5470.734 830.794,5470.374 830.758,5469.762 C830.812,5468.286 833.098,5468.232 834.43,5469.654 L836.536,5468.034 C835.222,5466.432 833.728,5466 832.18,5466 C829.84,5466 827.572,5467.314 827.572,5469.816 C827.572,5472.246 829.444,5473.542 831.496,5473.866 C832.54,5474.01 833.71,5474.424 833.674,5475.144 C833.584,5476.512 830.776,5476.44 829.498,5474.892 L827.464,5476.8 Z" id="HEADERS" fill="#FF144B"></path>
    </g>
</svg>