<?xml version="1.0" encoding="UTF-8"?>
<svg width="80px" height="14px" viewBox="0 0 80 14" version="1.1" xmlns="http://www.w3.org/2000/svg" xmlns:xlink="http://www.w3.org/1999/xlink">
    <!-- Generator: Sketch 48.1 (47250) - http://www.bohemiancoding.com/sketch -->
    <title>HEADERS</title>
    <desc>Created with Sketch.</desc>
    <defs></defs>
    <g id="BP-1440px-|-MPU" stroke="none" stroke-width="1" fill="none" fill-rule="evenodd" transform="translate(-760.000000, -5155.000000)">
        <path d="M768.01,5155.27 C767.452,5155.27 767.272,5155.45 767.272,5156.008 L767.272,5160.238 L762.934,5160.238 L762.934,5156.008 C762.934,5155.45 762.754,5155.27 762.196,5155.27 L760.738,5155.27 C760.18,5155.27 760,5155.45 760,5156.008 L760,5167.312 C760,5167.87 760.18,5168.05 760.738,5168.05 L762.196,5168.05 C762.754,5168.05 762.934,5167.87 762.934,5167.312 L762.934,5162.92 L767.272,5162.92 L767.272,5167.312 C767.272,5167.87 767.452,5168.05 768.01,5168.05 L769.468,5168.05 C770.026,5168.05 770.188,5167.87 770.188,5167.312 L770.188,5156.008 C770.188,5155.45 770.026,5155.27 769.468,5155.27 L768.01,5155.27 Z M773.14,5155.27 C772.582,5155.27 772.402,5155.45 772.402,5156.008 L772.402,5167.312 C772.402,5167.87 772.582,5168.05 773.14,5168.05 L780.556,5168.05 C781.114,5168.05 781.294,5167.87 781.294,5167.312 L781.294,5166.106 C781.294,5165.584 781.078,5165.368 780.556,5165.368 L775.336,5165.368 L775.336,5162.92 L779.476,5162.92 C780.034,5162.92 780.214,5162.74 780.214,5162.182 L780.214,5160.976 C780.214,5160.418 780.034,5160.256 779.476,5160.256 L775.336,5160.256 L775.336,5157.934 L780.376,5157.934 C780.934,5157.934 781.114,5157.772 781.114,5157.214 L781.114,5156.008 C781.114,5155.45 780.934,5155.27 780.376,5155.27 L773.14,5155.27 Z M789.718,5155.846 L794.02,5167.33 C794.2,5167.816 794.038,5168.05 793.534,5168.05 L792.184,5168.05 C791.302,5168.05 791.014,5167.906 790.852,5167.384 L790.294,5165.692 L785.848,5165.692 L785.272,5167.384 C785.074,5167.906 784.84,5168.05 783.958,5168.05 L782.716,5168.05 C782.212,5168.05 782.05,5167.816 782.23,5167.33 L786.532,5155.882 C786.694,5155.396 786.91,5155.27 787.432,5155.27 L788.818,5155.27 C789.34,5155.27 789.556,5155.396 789.718,5155.846 Z M789.538,5163.316 L788.602,5160.526 C788.368,5159.752 788.188,5158.78 788.17,5158.294 L788.152,5157.952 L787.972,5157.952 C787.99,5158.798 787.846,5159.662 787.558,5160.508 L786.622,5163.316 L789.538,5163.316 Z M795.748,5155.27 L799.96,5155.27 C803.344,5155.27 805.27,5157.088 805.27,5160.112 L805.27,5163.208 C805.27,5166.232 803.344,5168.05 799.96,5168.05 L795.748,5168.05 C795.19,5168.05 795.01,5167.87 795.01,5167.312 L795.01,5156.008 C795.01,5155.45 795.19,5155.27 795.748,5155.27 Z M802.354,5163.208 L802.354,5160.112 C802.354,5158.654 801.544,5157.934 799.942,5157.934 L797.944,5157.934 L797.944,5165.368 L799.942,5165.368 C801.544,5165.368 802.354,5164.648 802.354,5163.208 Z M807.862,5155.27 C807.304,5155.27 807.124,5155.45 807.124,5156.008 L807.124,5167.312 C807.124,5167.87 807.304,5168.05 807.862,5168.05 L815.278,5168.05 C815.836,5168.05 816.016,5167.87 816.016,5167.312 L816.016,5166.106 C816.016,5165.584 815.8,5165.368 815.278,5165.368 L810.058,5165.368 L810.058,5162.92 L814.198,5162.92 C814.756,5162.92 814.936,5162.74 814.936,5162.182 L814.936,5160.976 C814.936,5160.418 814.756,5160.256 814.198,5160.256 L810.058,5160.256 L810.058,5157.934 L815.098,5157.934 C815.656,5157.934 815.836,5157.772 815.836,5157.214 L815.836,5156.008 C815.836,5155.45 815.656,5155.27 815.098,5155.27 L807.862,5155.27 Z M818.374,5155.27 L823.36,5155.27 C825.97,5155.27 827.608,5156.818 827.608,5159.41 C827.608,5161.228 826.906,5162.47 825.52,5163.1 C825.556,5163.154 825.682,5163.352 825.898,5163.73 L827.752,5167.276 C828.022,5167.708 827.896,5168.05 827.374,5168.05 L825.934,5168.05 C825.016,5168.05 824.692,5167.906 824.422,5167.348 L823.09,5164.576 C822.676,5163.73 822.334,5163.514 821.308,5163.514 L820.57,5163.514 L820.57,5167.312 C820.57,5167.87 820.39,5168.05 819.832,5168.05 L818.374,5168.05 C817.816,5168.05 817.636,5167.87 817.636,5167.312 L817.636,5156.008 C817.636,5155.45 817.816,5155.27 818.374,5155.27 Z M824.188,5160.49 C824.44,5160.238 824.566,5159.878 824.566,5159.41 C824.566,5158.942 824.44,5158.582 824.188,5158.312 C823.918,5158.06 823.558,5157.934 823.072,5157.934 L820.57,5157.934 L820.57,5160.886 L823.072,5160.886 C823.558,5160.886 823.918,5160.76 824.188,5160.49 Z M829.102,5159.032 C829.102,5160.31 829.624,5161.264 830.218,5161.768 C830.506,5162.02 830.92,5162.236 831.442,5162.416 C831.964,5162.596 832.378,5162.704 832.72,5162.758 C833.062,5162.812 833.512,5162.884 834.088,5162.956 C835.654,5163.118 836.518,5163.442 836.518,5164.252 C836.518,5165.206 835.726,5165.674 834.124,5165.674 C832.954,5165.674 832.18,5165.26 831.802,5164.432 C831.568,5163.874 831.37,5163.802 830.848,5164 L829.534,5164.468 C829.03,5164.666 828.904,5164.882 829.066,5165.404 C829.786,5167.348 831.478,5168.32 834.124,5168.32 C835.762,5168.32 837.076,5167.942 838.03,5167.186 C838.984,5166.448 839.47,5165.44 839.47,5164.198 C839.47,5162.974 839.02,5162.038 838.462,5161.498 C838.174,5161.228 837.796,5161.012 837.346,5160.814 C836.428,5160.454 835.816,5160.364 834.808,5160.238 C833.926,5160.148 833.494,5160.076 832.936,5159.878 C832.36,5159.68 832.108,5159.356 832.108,5158.906 C832.108,5158.042 832.738,5157.664 834.232,5157.664 C835.258,5157.664 835.96,5158.06 836.356,5158.852 C836.626,5159.338 836.806,5159.428 837.292,5159.212 L838.66,5158.618 C839.182,5158.402 839.29,5158.15 839.056,5157.646 C838.21,5155.846 836.806,5155 834.232,5155 C830.974,5155 829.102,5156.638 829.102,5159.032 Z" id="HEADERS" fill="#FF144B"></path>
    </g>
</svg>