<?xml version="1.0" encoding="UTF-8"?>
<svg width="81px" height="14px" viewBox="0 0 81 14" version="1.1" xmlns="http://www.w3.org/2000/svg" xmlns:xlink="http://www.w3.org/1999/xlink">
    <!-- Generator: Sketch 48.1 (47250) - http://www.bohemiancoding.com/sketch -->
    <title>HEADERS</title>
    <desc>Created with Sketch.</desc>
    <defs></defs>
    <g id="BP-1440px-|-Vdele" stroke="none" stroke-width="1" fill="none" fill-rule="evenodd" transform="translate(-760.000000, -4950.000000)">
        <path d="M770.971,4963.158 L768.541,4963.158 L768.541,4957.47 L762.43,4957.47 L762.43,4963.158 L760,4963.158 L760,4950.144 L762.43,4950.144 L762.43,4955.742 L768.541,4955.742 L768.541,4950.144 L770.971,4950.144 L770.971,4963.158 Z M782.077,4950.144 L782.077,4952.07 L776.299,4952.07 L776.299,4955.679 L780.853,4955.679 L780.853,4957.542 L776.299,4957.542 L776.299,4961.223 L782.077,4961.223 L782.077,4963.158 L773.869,4963.158 L773.869,4950.144 L782.077,4950.144 Z M795.37,4963.158 L793.498,4963.158 C793.287999,4963.158 793.117001,4963.1055 792.985,4963.0005 C792.852999,4962.8955 792.754,4962.765 792.688,4962.609 L791.716,4959.954 L786.325,4959.954 L785.353,4962.609 C785.305,4962.747 785.212001,4962.873 785.074,4962.987 C784.935999,4963.101 784.765001,4963.158 784.561,4963.158 L782.671,4963.158 L787.792,4950.144 L790.258,4950.144 L795.37,4963.158 Z M786.946,4958.244 L791.095,4958.244 L789.511,4953.915 C789.433,4953.723 789.352,4953.4965 789.268,4953.2355 C789.184,4952.9745 789.1,4952.691 789.016,4952.385 C788.932,4952.691 788.8495,4952.976 788.7685,4953.24 C788.6875,4953.504 788.608,4953.735 788.53,4953.933 L786.946,4958.244 Z M808.276,4956.651 C808.276,4957.605 808.117002,4958.481 807.799,4959.279 C807.480998,4960.077 807.034003,4960.764 806.458,4961.34 C805.881997,4961.916 805.189004,4962.363 804.379,4962.681 C803.568996,4962.999 802.669005,4963.158 801.679,4963.158 L796.72,4963.158 L796.72,4950.144 L801.679,4950.144 C802.669005,4950.144 803.568996,4950.3045 804.379,4950.6255 C805.189004,4950.9465 805.881997,4951.3935 806.458,4951.9665 C807.034003,4952.5395 807.480998,4953.225 807.799,4954.023 C808.117002,4954.821 808.276,4955.697 808.276,4956.651 Z M805.792,4956.651 C805.792,4955.937 805.697501,4955.2965 805.5085,4954.7295 C805.319499,4954.1625 805.046502,4953.6825 804.6895,4953.2895 C804.332498,4952.8965 803.900503,4952.595 803.3935,4952.385 C802.886497,4952.175 802.315003,4952.07 801.679,4952.07 L799.15,4952.07 L799.15,4961.232 L801.679,4961.232 C802.315003,4961.232 802.886497,4961.127 803.3935,4960.917 C803.900503,4960.707 804.332498,4960.4055 804.6895,4960.0125 C805.046502,4959.6195 805.319499,4959.1395 805.5085,4958.5725 C805.697501,4958.0055 805.792,4957.365 805.792,4956.651 Z M818.617,4950.144 L818.617,4952.07 L812.839,4952.07 L812.839,4955.679 L817.393,4955.679 L817.393,4957.542 L812.839,4957.542 L812.839,4961.223 L818.617,4961.223 L818.617,4963.158 L810.409,4963.158 L810.409,4950.144 L818.617,4950.144 Z M823.18,4958.073 L823.18,4963.158 L820.759,4963.158 L820.759,4950.144 L824.728,4950.144 C825.610004,4950.144 826.367497,4950.2355 827.0005,4950.4185 C827.633503,4950.6015 828.152498,4950.858 828.5575,4951.188 C828.962502,4951.518 829.260999,4951.9125 829.453,4952.3715 C829.645001,4952.8305 829.741,4953.336 829.741,4953.888 C829.741,4954.326 829.676501,4954.74 829.5475,4955.13 C829.418499,4955.52 829.232501,4955.874 828.9895,4956.192 C828.746499,4956.51 828.446502,4956.789 828.0895,4957.029 C827.732498,4957.269 827.326002,4957.461 826.87,4957.605 C827.176002,4957.779 827.439999,4958.028 827.662,4958.352 L830.92,4963.158 L828.733,4963.158 C828.318998,4963.158 828.019001,4962.996 827.833,4962.672 L825.097,4958.505 C824.994999,4958.349 824.882501,4958.238 824.7595,4958.172 C824.636499,4958.106 824.455001,4958.073 824.215,4958.073 L823.18,4958.073 Z M823.18,4956.336 L824.692,4956.336 C825.148002,4956.336 825.545498,4956.279 825.8845,4956.165 C826.223502,4956.051 826.502499,4955.8935 826.7215,4955.6925 C826.940501,4955.4915 827.103999,4955.253 827.212,4954.977 C827.320001,4954.701 827.374,4954.398 827.374,4954.068 C827.374,4953.408 827.156502,4952.901 826.7215,4952.547 C826.286498,4952.193 825.622004,4952.016 824.728,4952.016 L823.18,4952.016 L823.18,4956.336 Z M839.263,4952.511 C839.191,4952.637 839.1145,4952.7285 839.0335,4952.7855 C838.9525,4952.8425 838.852001,4952.871 838.732,4952.871 C838.605999,4952.871 838.469501,4952.8245 838.3225,4952.7315 C838.175499,4952.6385 838.000001,4952.535 837.796,4952.421 C837.591999,4952.307 837.353501,4952.2035 837.0805,4952.1105 C836.807499,4952.0175 836.485002,4951.971 836.113,4951.971 C835.776998,4951.971 835.483001,4952.0115 835.231,4952.0925 C834.978999,4952.1735 834.767501,4952.286 834.5965,4952.43 C834.425499,4952.574 834.298,4952.7465 834.214,4952.9475 C834.13,4953.1485 834.088,4953.369 834.088,4953.609 C834.088,4953.915 834.173499,4954.17 834.3445,4954.374 C834.515501,4954.578 834.741999,4954.752 835.024,4954.896 C835.306001,4955.04 835.626998,4955.169 835.987,4955.283 C836.347002,4955.397 836.715998,4955.5185 837.094,4955.6475 C837.472002,4955.7765 837.840998,4955.9265 838.201,4956.0975 C838.561002,4956.2685 838.881999,4956.4845 839.164,4956.7455 C839.446001,4957.0065 839.672499,4957.326 839.8435,4957.704 C840.014501,4958.082 840.1,4958.541 840.1,4959.081 C840.1,4959.669 839.999501,4960.2195 839.7985,4960.7325 C839.597499,4961.2455 839.303502,4961.6925 838.9165,4962.0735 C838.529498,4962.4545 838.057003,4962.7545 837.499,4962.9735 C836.940997,4963.1925 836.302004,4963.302 835.582,4963.302 C835.167998,4963.302 834.760002,4963.2615 834.358,4963.1805 C833.955998,4963.0995 833.570502,4962.984 833.2015,4962.834 C832.832498,4962.684 832.486002,4962.504 832.162,4962.294 C831.837998,4962.084 831.550001,4961.85 831.298,4961.592 L832.009,4960.431 C832.069,4960.347 832.147,4960.2765 832.243,4960.2195 C832.339,4960.1625 832.440999,4960.134 832.549,4960.134 C832.699001,4960.134 832.860999,4960.1955 833.035,4960.3185 C833.209001,4960.4415 833.415999,4960.578 833.656,4960.728 C833.896001,4960.878 834.176498,4961.0145 834.4975,4961.1375 C834.818502,4961.2605 835.203998,4961.322 835.654,4961.322 C836.344003,4961.322 836.877998,4961.1585 837.256,4960.8315 C837.634002,4960.5045 837.823,4960.035 837.823,4959.423 C837.823,4959.081 837.737501,4958.802 837.5665,4958.586 C837.395499,4958.37 837.169001,4958.1885 836.887,4958.0415 C836.604999,4957.8945 836.284002,4957.77 835.924,4957.668 C835.563998,4957.566 835.198002,4957.455 834.826,4957.335 C834.453998,4957.215 834.088002,4957.071 833.728,4956.903 C833.367998,4956.735 833.047001,4956.516 832.765,4956.246 C832.482999,4955.976 832.256501,4955.6385 832.0855,4955.2335 C831.914499,4954.8285 831.829,4954.329 831.829,4953.735 C831.829,4953.261 831.923499,4952.799 832.1125,4952.349 C832.301501,4951.899 832.575998,4951.5 832.936,4951.152 C833.296002,4950.804 833.739997,4950.525 834.268,4950.315 C834.796003,4950.105 835.401997,4950 836.086,4950 C836.854004,4950 837.561997,4950.12 838.21,4950.36 C838.858003,4950.6 839.409998,4950.936 839.866,4951.368 L839.263,4952.511 Z" id="HEADERS" fill="#FF144B"></path>
    </g>
</svg>