<?xml version="1.0" encoding="UTF-8"?>
<svg width="44px" height="14px" viewBox="0 0 44 14" version="1.1" xmlns="http://www.w3.org/2000/svg" xmlns:xlink="http://www.w3.org/1999/xlink">
    <!-- Generator: Sketch 48.1 (47250) - http://www.bohemiancoding.com/sketch -->
    <title>TEXT</title>
    <desc>Created with Sketch.</desc>
    <defs></defs>
    <g id="BP-1440px-|-Travel.App" stroke="none" stroke-width="1" fill="none" fill-rule="evenodd" transform="translate(-1040.000000, -5466.000000)">
        <path d="M1050.269,5466 L1050.269,5467.989 L1046.345,5467.989 L1046.345,5479.014 L1043.924,5479.014 L1043.924,5467.989 L1040,5467.989 L1040,5466 L1050.269,5466 Z M1060.187,5466 L1060.187,5467.926 L1054.409,5467.926 L1054.409,5471.535 L1058.963,5471.535 L1058.963,5473.398 L1054.409,5473.398 L1054.409,5477.079 L1060.187,5477.079 L1060.187,5479.014 L1051.979,5479.014 L1051.979,5466 L1060.187,5466 Z M1065.227,5472.318 L1061.078,5466 L1063.49,5466 C1063.658,5466 1063.7795,5466.0225 1063.8545,5466.0675 C1063.9295,5466.1125 1064,5466.186 1064.066,5466.288 L1067.018,5471.058 C1067.048,5470.986 1067.081,5470.9125 1067.117,5470.8375 C1067.153,5470.7625 1067.195,5470.686 1067.243,5470.608 L1069.961,5466.333 C1070.027,5466.219 1070.099,5466.135 1070.177,5466.081 C1070.255,5466.027 1070.354,5466 1070.474,5466 L1072.787,5466 L1068.602,5472.219 L1072.904,5479.014 L1070.492,5479.014 C1070.324,5479.014 1070.1905,5478.972 1070.0915,5478.888 C1069.9925,5478.804 1069.913,5478.708 1069.853,5478.6 L1066.838,5473.614 C1066.796,5473.746 1066.739,5473.872 1066.667,5473.992 L1063.778,5478.6 C1063.706,5478.702 1063.6235,5478.7965 1063.5305,5478.8835 C1063.4375,5478.9705 1063.316,5479.014 1063.166,5479.014 L1060.907,5479.014 L1065.227,5472.318 Z M1083.488,5466 L1083.488,5467.989 L1079.564,5467.989 L1079.564,5479.014 L1077.143,5479.014 L1077.143,5467.989 L1073.219,5467.989 L1073.219,5466 L1083.488,5466 Z" id="TEXT" fill="#FF144B"></path>
    </g>
</svg>