<?xml version="1.0" encoding="UTF-8"?>
<svg width="41px" height="13px" viewBox="0 0 41 13" version="1.1" xmlns="http://www.w3.org/2000/svg" xmlns:xlink="http://www.w3.org/1999/xlink">
    <!-- Generator: Sketch 48.1 (47250) - http://www.bohemiancoding.com/sketch -->
    <title>TEXT</title>
    <desc>Created with Sketch.</desc>
    <defs></defs>
    <g id="BP-1440px-|-MPU" stroke="none" stroke-width="1" fill="none" fill-rule="evenodd" transform="translate(-1040.000000, -5155.000000)">
        <path d="M1040.36,5155 C1040.09,5155 1040,5155.09 1040,5155.36 L1040,5155.864 C1040,5156.134 1040.09,5156.224 1040.36,5156.224 L1043.996,5156.224 L1043.996,5167.42 C1043.996,5167.69 1044.086,5167.78 1044.356,5167.78 L1044.95,5167.78 C1045.22,5167.78 1045.31,5167.69 1045.31,5167.42 L1045.31,5156.224 L1048.946,5156.224 C1049.216,5156.224 1049.306,5156.134 1049.306,5155.864 L1049.306,5155.36 C1049.306,5155.09 1049.216,5155 1048.946,5155 L1040.36,5155 Z M1051.304,5155 C1051.034,5155 1050.944,5155.09 1050.944,5155.36 L1050.944,5167.42 C1050.944,5167.69 1051.034,5167.78 1051.304,5167.78 L1058.828,5167.78 C1059.062,5167.78 1059.17,5167.654 1059.17,5167.42 L1059.17,5166.916 C1059.17,5166.682 1059.062,5166.556 1058.828,5166.556 L1052.24,5166.556 L1052.24,5161.912 L1057.784,5161.912 C1058.018,5161.912 1058.126,5161.786 1058.126,5161.552 L1058.126,5161.048 C1058.126,5160.814 1058.018,5160.688 1057.784,5160.688 L1052.24,5160.688 L1052.24,5156.224 L1058.594,5156.224 C1058.828,5156.224 1058.936,5156.098 1058.936,5155.864 L1058.936,5155.36 C1058.936,5155.126 1058.828,5155 1058.594,5155 L1051.304,5155 Z M1066.262,5161.282 L1070.546,5155.342 C1070.672,5155.18 1070.6,5155 1070.366,5155 L1069.646,5155 C1069.268,5155 1069.16,5155.036 1068.998,5155.306 L1065.452,5160.256 L1061.924,5155.306 C1061.726,5155.036 1061.618,5155 1061.24,5155 L1060.52,5155 C1060.286,5155 1060.214,5155.18 1060.34,5155.342 L1064.606,5161.282 L1060.214,5167.402 C1060.07,5167.6 1060.106,5167.78 1060.376,5167.78 L1061.06,5167.78 C1061.474,5167.78 1061.582,5167.744 1061.744,5167.456 L1065.398,5162.29 L1069.106,5167.456 C1069.25,5167.744 1069.358,5167.78 1069.79,5167.78 L1070.51,5167.78 C1070.798,5167.78 1070.834,5167.6 1070.69,5167.402 L1066.262,5161.282 Z M1071.554,5155 C1071.284,5155 1071.194,5155.09 1071.194,5155.36 L1071.194,5155.864 C1071.194,5156.134 1071.284,5156.224 1071.554,5156.224 L1075.19,5156.224 L1075.19,5167.42 C1075.19,5167.69 1075.28,5167.78 1075.55,5167.78 L1076.144,5167.78 C1076.414,5167.78 1076.504,5167.69 1076.504,5167.42 L1076.504,5156.224 L1080.14,5156.224 C1080.41,5156.224 1080.5,5156.134 1080.5,5155.864 L1080.5,5155.36 C1080.5,5155.09 1080.41,5155 1080.14,5155 L1071.554,5155 Z" id="TEXT" fill="#FF144B"></path>
    </g>
</svg>