<?xml version="1.0" encoding="UTF-8"?>
<svg width="42px" height="13px" viewBox="0 0 42 13" version="1.1" xmlns="http://www.w3.org/2000/svg" xmlns:xlink="http://www.w3.org/1999/xlink">
    <!-- Generator: Sketch 48.1 (47250) - http://www.bohemiancoding.com/sketch -->
    <title>TEXT</title>
    <desc>Created with Sketch.</desc>
    <defs></defs>
    <g id="BP-1440px-|-Vdele" stroke="none" stroke-width="1" fill="none" fill-rule="evenodd" transform="translate(-1040.000000, -4950.000000)">
        <path d="M1049.9,4950 L1049.9,4950.783 L1045.427,4950.783 L1045.427,4962.735 L1044.5,4962.735 L1044.5,4950.783 L1040,4950.783 L1040,4950 L1049.9,4950 Z M1059.674,4950 L1059.674,4950.765 L1052.969,4950.765 L1052.969,4955.913 L1058.549,4955.913 L1058.549,4956.66 L1052.969,4956.66 L1052.969,4961.97 L1059.692,4961.97 L1059.674,4962.735 L1052.042,4962.735 L1052.042,4950 L1059.674,4950 Z M1065.56,4956.201 L1061.168,4950 L1062.077,4950 C1062.161,4950 1062.2225,4950.018 1062.2615,4950.054 C1062.3005,4950.09 1062.335,4950.132 1062.365,4950.18 L1066.235,4955.76 C1066.253,4955.712 1066.2725,4955.6655 1066.2935,4955.6205 C1066.3145,4955.5755 1066.34,4955.529 1066.37,4955.481 L1070.105,4950.189 C1070.135,4950.135 1070.1725,4950.09 1070.2175,4950.054 C1070.2625,4950.018 1070.315,4950 1070.375,4950 L1071.257,4950 L1066.856,4956.156 L1071.437,4962.735 L1070.528,4962.735 C1070.444,4962.735 1070.378,4962.7095 1070.33,4962.6585 C1070.282,4962.6075 1070.243,4962.558 1070.213,4962.51 L1066.199,4956.642 C1066.175,4956.732 1066.133,4956.819 1066.073,4956.903 L1062.131,4962.51 C1062.089,4962.564 1062.0455,4962.615 1062.0005,4962.663 C1061.9555,4962.711 1061.897,4962.735 1061.825,4962.735 L1060.961,4962.735 L1065.56,4956.201 Z M1081.976,4950 L1081.976,4950.783 L1077.503,4950.783 L1077.503,4962.735 L1076.576,4962.735 L1076.576,4950.783 L1072.076,4950.783 L1072.076,4950 L1081.976,4950 Z" id="TEXT" fill="#FF144B"></path>
    </g>
</svg>